# xmcd
#
# Track frame offsets:
#	150
#	8823
#	19098
#	34244
#	47134
#	58548
#	75015
#	92873
#	116319
#	126971
#	139076
#	154342
#
# Disc length: 2208 seconds
#
# Revision: 1
# Processed by: cddbd v1.5PL3 Copyright (c) Steve Scherf et al.
# Submitted via: audiograbber 1.83.01
#
DISCID=90089e0c
DTITLE=Pigalle Blues Ensemble - Norwegian Blue
DYEAR=1999
DGENRE=
TTITLE0=Hawaii tattoo
TTITLE1=My bucket's got a hole in it
TTITLE2=300 pounds of joy
TTITLE3=Norwegian blue
TTITLE4=I'm moving on
TTITLE5=Can't stop lovin' 
TTITLE6=Slow blues
TTITLE7=She walks right in
TTITLE8=Millennium blues
TTITLE9=Cubanola glide
TTITLE10=It ain't right
TTITLE11=After the rain
EXTD=
EXTT0=
EXTT1=
EXTT2=
EXTT3=
EXTT4=
EXTT5=
EXTT6=
EXTT7=
EXTT8=
EXTT9=
EXTT10=
EXTT11=
PLAYORDER=
